<?xml version="1.0" encoding="utf-8"?>
<!-- Generator: Adobe Illustrator 24.0.2, SVG Export Plug-In . SVG Version: 6.00 Build 0)  -->
<svg version="1.1" xmlns="http://www.w3.org/2000/svg" xmlns:xlink="http://www.w3.org/1999/xlink" x="0px" y="0px"
	 viewBox="0 0 283.46 141.73" style="enable-background:new 0 0 283.46 141.73;" xml:space="preserve">
<style type="text/css">
	.st0{fill:#202952;}
	.st1{fill:#0B7BC0;}
	.st2{display:none;}
	.st3{display:inline;fill:#0B7BC0;}
	.st4{font-family:'TragicMarker-Regular';}
	.st5{font-size:27px;}
</style>
<g id="Ebene_2">
	<path class="st0" d="M140.86,81.69c0-2.18,0-4.37,0-6.6c0.14,0,0.26,0,0.39,0c6.31,0,12.63,0.02,18.94-0.01
		c1.99-0.01,3.98-0.07,5.96-0.22c2.09-0.15,4.14-0.52,6.07-1.4c1.11-0.5,2.1-1.18,2.8-2.19c0.99-1.43,1.25-3.01,0.89-4.69
		c-0.29-1.31-1.19-2.15-2.35-2.74c-1.21-0.61-2.5-0.95-3.82-1.17c-2.34-0.39-4.68-0.71-7.02-1.09c-1.97-0.32-3.93-0.66-5.9-1
		c-2.08-0.36-4.14-0.77-6.16-1.35c-1.67-0.48-3.28-1.1-4.77-2c-2.58-1.57-4.19-3.83-4.74-6.81c-0.48-2.58-0.4-5.15,0.42-7.66
		c0.95-2.91,2.87-5.02,5.51-6.52c2.04-1.16,4.26-1.82,6.55-2.25c3.01-0.56,6.06-0.62,9.1-0.62c6.5,0,13,0,19.5-0.01
		c0.1,0,0.2,0,0.33,0c0,2.26,0,4.5,0,6.79c-0.51,0-1.02,0-1.52,0c-6.58,0.01-13.15,0-19.73,0.02c-1.96,0.01-3.92,0.09-5.86,0.39
		c-1.51,0.23-3,0.58-4.37,1.3c-2.05,1.08-3.12,2.78-3.25,5.09c-0.05,0.87-0.01,1.72,0.27,2.55c0.36,1.05,1.06,1.81,2,2.38
		c1.12,0.68,2.35,1.08,3.62,1.33c1.94,0.38,3.89,0.7,5.83,1.02c1.55,0.26,3.11,0.5,4.66,0.75c1.69,0.27,3.38,0.53,5.07,0.83
		c2.59,0.46,5.16,1.02,7.57,2.13c1.77,0.81,3.31,1.91,4.41,3.55c0.88,1.3,1.35,2.74,1.55,4.29c0.25,2,0.17,3.98-0.38,5.93
		c-0.88,3.12-2.85,5.36-5.64,6.94c-1.98,1.12-4.13,1.79-6.35,2.24c-2.19,0.44-4.41,0.67-6.64,0.74c-0.16,0.01-0.31,0.03-0.47,0.05
		C155.83,81.69,148.34,81.69,140.86,81.69z"/>
	<path class="st0" d="M62.95,81.69c-0.03-0.09-0.06-0.17-0.1-0.25c-0.59-1.14-1.19-2.27-1.77-3.41c-0.11-0.21-0.23-0.28-0.47-0.28
		c-9.57,0.01-19.14,0.01-28.71,0.01c-0.12,0-0.24,0-0.4,0c0.04-0.11,0.07-0.21,0.11-0.29c0.81-1.78,1.62-3.56,2.43-5.34
		c0.1-0.21,0.21-0.27,0.44-0.27c7.69,0.01,15.39,0,23.08,0c0.12,0,0.24,0,0.37,0c-4.97-9.73-9.93-19.45-14.91-29.21
		c-0.36,0.71-0.7,1.37-1.04,2.03C36.59,55.2,31.21,65.72,25.84,76.24c-0.86,1.69-1.66,3.42-2.47,5.13c-0.09,0.19-0.2,0.26-0.42,0.26
		c-2.31-0.01-4.62-0.01-6.92-0.01c-0.09,0-0.18,0-0.3,0c0.06-0.13,0.1-0.22,0.15-0.31c8.16-15.88,16.31-31.76,24.46-47.64
		c0.12-0.23,0.25-0.31,0.51-0.31c1.49,0.01,2.98,0.01,4.47,0.01c0.13,0,0.24-0.01,0.32,0.15c1,1.98,2.02,3.95,3.03,5.92
		c6.42,12.47,12.84,24.94,19.26,37.41c0.84,1.62,1.71,3.22,2.57,4.83C67.98,81.69,65.46,81.69,62.95,81.69z"/>
	<path class="st0" d="M218.2,81.69c0-7.02,0-14.04,0-21.06c0-0.12-0.06-0.27-0.14-0.37c-5.95-6.92-11.9-13.83-17.85-20.75
		c-1.67-1.94-3.34-3.88-5.01-5.82c-0.07-0.09-0.14-0.17-0.25-0.3c0.11-0.01,0.19-0.02,0.26-0.02c2.76,0,5.52,0,8.27,0.01
		c0.13,0,0.29,0.08,0.37,0.17c5.8,6.8,11.58,13.61,17.38,20.41c1.17,1.37,2.36,2.72,3.55,4.07c0.16,0.18,0.23,0.36,0.23,0.6
		c-0.01,7.69,0,15.37,0,23.06C222.75,81.69,220.47,81.69,218.2,81.69z"/>
	<path class="st0" d="M118.4,33.4c2.29,0,4.56,0,6.87,0c0,0.1,0,0.2,0,0.3c0,9.34,0,18.69,0,28.03c0,2.84-0.39,5.62-1.44,8.27
		c-1.67,4.23-4.62,7.25-8.71,9.2c-2.2,1.05-4.54,1.68-6.94,2.05c-2.65,0.41-5.32,0.49-7.99,0.32c-3.53-0.22-6.96-0.9-10.18-2.41
		c-5.48-2.57-8.79-6.85-10-12.77c-0.32-1.57-0.45-3.15-0.45-4.75c0-9.29,0-18.58,0-27.87c0-0.12,0-0.24,0-0.38c2.32,0,4.61,0,6.95,0
		c0,0.13,0,0.27,0,0.4c0,9.27,0,18.54,0,27.81c0,1.76,0.22,3.49,0.85,5.15c1.05,2.75,2.97,4.7,5.55,6.05
		c1.88,0.98,3.89,1.54,5.97,1.86c1.58,0.24,3.17,0.34,4.77,0.27c3.12-0.13,6.14-0.69,8.9-2.25c3.11-1.77,4.96-4.44,5.57-7.96
		c0.18-1.05,0.27-2.12,0.27-3.18c0.02-9.26,0.01-18.52,0.01-27.78C118.4,33.65,118.4,33.53,118.4,33.4z"/>
	<path class="st1" d="M228.77,54.39c-1.43-1.65-2.84-3.28-4.26-4.92c0.63-0.74,1.24-1.47,1.86-2.2c3.86-4.56,7.71-9.12,11.57-13.68
		c0.08-0.1,0.24-0.19,0.36-0.19c2.76-0.01,5.52-0.01,8.27-0.01c0.06,0,0.13,0,0.26,0C240.79,40.42,234.79,47.39,228.77,54.39z"/>
</g>
<g id="Text" class="st2">
	<text transform="matrix(1 0 0 1 53.0326 110.4077)" class="st3 st4 st5">IT starts with people</text>
</g>
<g id="Pfade">
	<g>
		<path class="st1" d="M53.14,94.16c-0.11-2.48,0-2.7,0.43-2.81c0.76-0.11,1.51,0,1.94,0.43c0.32,0.43,0.57,1.4,0.89,4.75
			c0.22,2.05,0.43,3.91,1.19,11.71c0.38,1.81-0.65,2.16-1.4,2.16c-1.08-0.11-1.86-0.54-1.97-1.51C54,107.38,53.25,96.75,53.14,94.16
			z"/>
		<path class="st1" d="M63.89,91.59c1.48-0.22,2.86-0.41,3.08-0.43c0.86-0.08,2.4,0,2.73,0.22c0.84,0.54,1.16,1.24,0.62,1.78
			c-0.32,0.32-0.22,0.32-2,0.32c-0.73,0-1.67,0-2,0.11c-0.62,0.11-0.62,0.11-0.62,1.38c0.22,4,0.62,9.37,1.05,11.58
			c0.32,1.89,0.43,2.83,0.32,3.16c-0.11,0.32-0.86,0.62-1.49,0.62c-0.62,0-1.38-0.3-1.7-0.84c-0.32-0.32-0.41-1.24-0.73-3.89
			c-0.43-4-0.62-8.02-0.62-10.85c-0.11-0.73-0.11-0.76-1.05-0.65c-1.78,0.22-2.62,0.14-3.16-0.4c-0.32-0.32-0.43-0.95,0-1.16
			C58.76,92.21,60.84,91.92,63.89,91.59z"/>
		<path class="st1" d="M77.33,103.79c0.81-2.64,3.67-5.34,6.48-6.15c0.65-0.16,1.65-0.19,2.11,0.08c1.81,1.11,0.81,2.08-0.24,1.92
			c-0.67-0.11-0.95,0.08-2,0.73c-1.11,0.73-1.92,1.59-2.81,2.94c-0.41,0.57-0.41,0.86-0.57,1.3c2.29-0.86,3.67-0.57,4.16-0.49
			c2.16,0.41,2.73,2.4,1.13,3.91c-1.92,1.92-4.43,2.59-5.78,1.62c-0.41-0.24-0.7-0.73-0.62-1.13c0.11-0.86,0.7-0.65,1.19-0.57
			c0.65,0.08,1.11-0.13,1.92-0.62c0.49-0.32,1.21-0.97,1.05-1.05c0,0-2.48,0.38-3.37,0.49c-2.16,0.27-2.81-1.19-2.81-2
			C77.17,104.44,77.25,104.04,77.33,103.79z"/>
		<path class="st1" d="M90.64,89.84c0-0.38,0.16-0.62,0.4-0.76c0.65-0.13,1.65,0.24,1.89,0.89c0.24,0.51,0.35,1.89,0.35,4.02
			c0,2.13,0,2.16,0.89,2.02c2.43-0.3,2.4,1,2.27,1.38s-0.51,0.49-1.89,1.13c-1.13,0.38-1.13,0.38-1.13,4.16c0,2.02,0,3.91,0,4.16
			c0.14,0.65,0.14,0.62,0.65,0.49c1.13,0,1.89,0.65,1.89,1.4c0,1.24-1.89,1.59-3.78,1.13c-2.11-0.65-2.02-2.24-2.02-5.91
			c-0.13-3.67-0.11-3.67-0.76-3.67c-0.89,0.13-1.51-0.11-1.89-0.76c-0.24-0.24-0.24-0.38,0-0.62c0.13-0.38,1-0.89,2.13-1.4
			c0.65-0.13,0.62-0.11,0.62-1.75C90.26,93.48,90.4,90.59,90.64,89.84z"/>
		<path class="st1" d="M99.98,99.18c1-1,1.38-1.32,1.97-1.54c0.59-0.16,1.57-0.16,2.16,0.13c0.86,0.38,1.13,0.95,0.84,1.54
			c-0.16,0.22-0.19,0.24,0.13,0.54c0.57,0.54,0.4,1.3,0.4,2.16c0.08,2.24,0.14,2.75,0.92,5.8c0.22,0.59,0.3,1,0.22,1.16
			c-0.08,0.46-1.13,0.59-1.92,0.38c-0.54-0.22-0.76-0.43-1.3-1.67c0-0.16-0.08-0.32-0.16-0.32c0,0-0.13,0.24-0.3,0.54
			c-0.38,0.78-1,1.46-1.59,1.67c-0.89,0.46-2.21,0.22-2.75,0c-0.86-0.46-1.62-1.13-1.65-2.05C96.85,102.74,99.44,99.72,99.98,99.18z
			 M99.88,107.14c2.67-1.35,2.46-6.53,2.46-6.53s-0.24,0.16-0.46,0.46c-0.54,0.59-1.21,2.08-1.51,3.08
			c-0.08,0.38-0.24,0.76-0.32,0.84C99.88,105.36,99.71,107.22,99.88,107.14z"/>
		<path class="st1" d="M110.46,99.29c0.49-0.97,1.4-1.73,2.13-2.05c0.57-0.16,1.3-0.19,1.86,0c1.83,0.59,1.7,1.48,1.54,1.81
			c-0.24,0.32-0.65,0.46-1.21,0.38c-1.16-0.32-1.48,0.57-1.97,1.21c-0.73,1.38-0.78,3.02-1.19,6.42c-0.08,0.89-0.24,1.67-0.24,1.75
			c-0.16,0.32-2.11,1.43-2.83-0.54c-0.08-0.16-0.84-7.21-0.84-8.02c-0.08-1.29-0.05-1.32,0.11-1.48c0.32-0.24,1.13-0.22,1.62,0.11
			c0.32,0.16,0.41,0.22,0.57,0.54C110.16,99.91,110.14,99.93,110.46,99.29z"/>
		<path class="st1" d="M118.59,89.84c0-0.38,0.16-0.62,0.41-0.76c0.65-0.13,1.65,0.24,1.89,0.89c0.24,0.51,0.35,1.89,0.35,4.02
			c0,2.13,0,2.16,0.89,2.02c2.43-0.3,2.4,1,2.27,1.38s-0.51,0.49-1.89,1.13c-1.13,0.38-1.13,0.38-1.13,4.16c0,2.02,0,3.91,0,4.16
			c0.14,0.65,0.14,0.62,0.65,0.49c1.13,0,1.89,0.65,1.89,1.4c0,1.24-1.89,1.59-3.78,1.13c-2.11-0.65-2.02-2.24-2.02-5.91
			c-0.13-3.67-0.11-3.67-0.76-3.67c-0.89,0.13-1.51-0.11-1.89-0.76c-0.24-0.24-0.24-0.38,0-0.62c0.13-0.38,1-0.89,2.13-1.4
			c0.65-0.13,0.62-0.11,0.62-1.75C118.21,93.48,118.35,90.59,118.59,89.84z"/>
		<path class="st1" d="M126.09,103.79c0.81-2.64,3.67-5.34,6.48-6.15c0.65-0.16,1.65-0.19,2.11,0.08c1.81,1.11,0.81,2.08-0.24,1.92
			c-0.67-0.11-0.94,0.08-2,0.73c-1.11,0.73-1.92,1.59-2.81,2.94c-0.4,0.57-0.4,0.86-0.57,1.3c2.29-0.86,3.67-0.57,4.16-0.49
			c2.16,0.41,2.73,2.4,1.13,3.91c-1.92,1.92-4.43,2.59-5.78,1.62c-0.4-0.24-0.7-0.73-0.62-1.13c0.11-0.86,0.7-0.65,1.19-0.57
			c0.65,0.08,1.11-0.13,1.92-0.62c0.49-0.32,1.21-0.97,1.05-1.05c0,0-2.48,0.38-3.37,0.49c-2.16,0.27-2.81-1.19-2.81-2
			C125.93,104.44,126.01,104.04,126.09,103.79z"/>
		<path class="st1" d="M152.77,97.88c0-0.16,0.19-0.32,0.27-0.41c0.43-0.35,1.43-0.24,2.02,0c0.59,0.35,0.67,0.49,0.84,1.67
			c0.35,3.86,0.16,8.53,0,8.96c-0.43,1.11-1.27,1.62-2.54,1.46c-1.03-0.24-2.02-1.03-2.86-2.38c-0.43-0.67-0.43-0.67-0.59,0
			c-0.62,2.94-1.86,3.13-2.38,3.13c-1.19,0.08-1.94-0.27-2.38-1.19c-0.35-0.59-0.67-2.19-0.84-3.97c-0.16-1.86-0.08-5.51,0.16-6.18
			c1.16-1.24,1.97,0,2.21,0.16c0.16,0.24,0.16,0.43,0.24,1.54c0.08,1.94-0.08,6.02,0.67,4.18c0.3-0.97,0.78-3.35,0.94-3.86
			c0.35-1.11,0.43-1.27,1.27-1.27c1.73-0.03,1.86,0.7,1.94,1.62c0.16,1.78,0.57,3.64,1,4.4c0.16,0.24,0.19,0.24,0.19-1.78
			c0-1.19,0-2.86-0.08-3.97C152.8,98.99,152.77,98.04,152.77,97.88z"/>
		<path class="st1" d="M157.82,102.69c0-1.21,0.19-1.67,0.51-1.84c0.32-0.16,1.32-0.03,1.73,0.19c0.57,0.41,0.67,0.62,0.81,3.54
			c0.05,0.57,0.16,1.97,0.3,3s0.38,1.24,0.19,2.13c-0.19,0.97-1.97,0.62-2.29,0.51c-0.57-0.32-0.86-0.78-1.03-1.35
			C157.79,107.55,157.71,104.36,157.82,102.69z M157.93,97.86c0.03-0.65,0.16-0.86,0.24-0.94c0.35-0.27,1.27-0.24,1.73,0
			c1.51,0.84,0.67,2.51,0.16,2.56C157.71,100.07,157.9,98.34,157.93,97.86z"/>
		<path class="st1" d="M163.87,89.84c0-0.38,0.16-0.62,0.41-0.76c0.65-0.13,1.65,0.24,1.89,0.89c0.24,0.51,0.35,1.89,0.35,4.02
			c0,2.13,0,2.16,0.89,2.02c2.43-0.3,2.4,1,2.27,1.38s-0.51,0.49-1.89,1.13c-1.13,0.38-1.13,0.38-1.13,4.16c0,2.02,0,3.91,0,4.16
			c0.14,0.65,0.14,0.62,0.65,0.49c1.13,0,1.89,0.65,1.89,1.4c0,1.24-1.89,1.59-3.78,1.13c-2.11-0.65-2.02-2.24-2.02-5.91
			c-0.13-3.67-0.11-3.67-0.76-3.67c-0.89,0.13-1.51-0.11-1.89-0.76c-0.24-0.24-0.24-0.38,0-0.62c0.13-0.38,1-0.89,2.13-1.4
			c0.65-0.13,0.62-0.11,0.62-1.75C163.49,93.48,163.62,90.59,163.87,89.84z"/>
		<path class="st1" d="M170.7,93.19c0.11-1.35,0.11-1.49,0.46-1.59c0.46-0.35,1.7-0.11,2.05,0.46c0.11,0.11,0.22,0.67,0.22,1.35
			c0.11,1.03,0.46,7.26,0.46,7.94c0.11,0.22,0.22,0.13,0.67-0.78c0.92-1.35,1.13-1.7,1.7-2.05c2.67-0.89,3.51,0.92,3.86,1.48
			c0.46,0.92,1.03,4.18,1.13,6.8c0,0.78,0.11,1.49,0.22,1.7c0.11,0.57,0.03,0.92-0.43,1.13c-2.29,0.7-2.65-0.57-2.86-0.92
			c0.13-2.59-0.22-4.4-0.43-5.88c-0.22-1.13-0.54-1-0.97-0.35c-0.43,0.84-1.4,2.73-2.11,6.48c0,0.46-0.22,0.78-0.32,0.89
			c-0.46,0.57-1.73,0.46-2.51-0.22c-0.35-0.46-0.35-0.46-0.46-1.81C170.91,103.39,170.59,95.45,170.7,93.19z"/>
		<path class="st1" d="M190.49,99.37c0.38-1.54,0.51-2,0.62-2.11c0.62-0.51,2.46,0.16,2.46,0.81c0,0.11,0.89-0.05,1.75,0.05
			c2.19,0.11,3.21,1.13,3.94,2.67c0.27,0.78,0.38,2.21,0,3c-0.73,2.11-2.56,4.24-5.32,4.99c-0.62,0.3-0.51,0.24-0.59,1.92
			c-0.08,1.94,0.32,4.24,0.32,4.64c0,0.92-0.19,1.19-1.19,1.19c-0.86,0.11-1.62-0.24-2-0.76c-0.27-0.51-0.24-0.89-0.35-4.54
			c0-1.43-0.11-2.97-0.22-3.27c-0.11-0.41-0.11-0.49,0-0.78c0.11-0.11,0.22-0.7,0.22-1.21C190.14,104.82,190.38,100.15,190.49,99.37
			z M194.67,105.6c1.7-1.81,2.02-3.05,1.81-4.32c-0.11-0.3-0.43-0.65-1.16-0.65c-1.21,0-1.65-0.13-1.75,0.27
			c0,0.11-0.22,4.02-0.22,4.32C193.24,106.01,193.94,106.39,194.67,105.6z"/>
		<path class="st1" d="M200.77,102.34c0.67-2.16,2.08-3.7,3.78-4.32c3.89-1.16,4.59,1.13,4.75,2.08c-0.49,4.67-4.56,5.24-5.34,5.32
			c-0.35,0-0.32,0-0.24,0.32c0.49,2.38,3.51,2.02,3.86,2.11c0.43,0.24,0.92,0.7,0.92,0.95c0,1.03-2.65,1.35-4.62,0.54
			C200.1,108.03,200.51,103.28,200.77,102.34z M205.34,101.93c0.59-0.62,0.94-1.27,0.94-1.75c0.08-0.4,0-0.49-0.27-0.24
			c0,0-0.16,0.16-0.32,0.24c-0.35,0.24-1.11,1.19-1.38,1.59c-0.16,0.41-0.51,1.35-0.51,1.35
			C203.88,103.2,204.9,102.42,205.34,101.93z"/>
		<path class="st1" d="M212.06,99.58c0.81-1.46,1.32-1.94,2.05-2.19c3.62,0.11,4.56,1.59,5.21,3.67c0.24,0.86,0.24,2.48,0,3.54
			c-1.05,4.21-4.54,5.02-6.07,4.78c-3.02,0-3.02-3.02-2.94-3.97C210.39,103.25,211.01,101.34,212.06,99.58z M216.19,103.96
			c0.41-1.35,0.19-3.27-0.46-4.08c-0.08-0.08-0.24-0.08-0.24-0.08c-0.41,0-1.65,2.27-2.05,4.02c-0.32,1.35-0.11,3.27,0.22,3.19
			C215.68,106.52,215.87,105.01,216.19,103.96z"/>
		<path class="st1" d="M220.92,99.37c0.38-1.54,0.51-2,0.62-2.11c0.62-0.51,2.46,0.16,2.46,0.81c0,0.11,0.89-0.05,1.75,0.05
			c2.19,0.11,3.21,1.13,3.94,2.67c0.27,0.78,0.38,2.21,0,3c-0.73,2.11-2.56,4.24-5.32,4.99c-0.62,0.3-0.51,0.24-0.59,1.92
			c-0.08,1.94,0.32,4.24,0.32,4.64c0,0.92-0.19,1.19-1.19,1.19c-0.86,0.11-1.62-0.24-2-0.76c-0.27-0.51-0.24-0.89-0.35-4.54
			c0-1.43-0.11-2.97-0.22-3.27c-0.11-0.41-0.11-0.49,0-0.78c0.11-0.11,0.22-0.7,0.22-1.21C220.57,104.82,220.81,100.15,220.92,99.37
			z M225.1,105.6c1.7-1.81,2.02-3.05,1.81-4.32c-0.11-0.3-0.43-0.65-1.16-0.65c-1.21,0-1.65-0.13-1.75,0.27
			c0,0.11-0.22,4.02-0.22,4.32C223.67,106.01,224.37,106.39,225.1,105.6z"/>
		<path class="st1" d="M231.04,97.48c-0.11-4.32,0-5.75,0.35-5.86c0.59-0.35,1.81-0.11,2.16,0.49c0.24,0.35,0.24,0.84,0.49,4.43
			c0,2.75,0.46,8.02,0.94,11.26c0.11,1.57,0.13,2.16-0.35,2.27c-0.73,0.35-1.81,0.11-2.29-0.49c-0.24-0.24-0.35-0.46-0.46-1.19
			C231.28,105.39,231.04,102.39,231.04,97.48z"/>
		<path class="st1" d="M236.17,102.34c0.67-2.16,2.08-3.7,3.78-4.32c3.89-1.16,4.59,1.13,4.75,2.08c-0.49,4.67-4.56,5.24-5.34,5.32
			c-0.35,0-0.32,0-0.24,0.32c0.49,2.38,3.51,2.02,3.86,2.11c0.43,0.24,0.92,0.7,0.92,0.95c0,1.03-2.65,1.35-4.62,0.54
			C235.5,108.03,235.9,103.28,236.17,102.34z M240.73,101.93c0.59-0.62,0.94-1.27,0.94-1.75c0.08-0.4,0-0.49-0.27-0.24
			c0,0-0.16,0.16-0.32,0.24c-0.35,0.24-1.11,1.19-1.38,1.59c-0.16,0.41-0.51,1.35-0.51,1.35
			C239.28,103.2,240.3,102.42,240.73,101.93z"/>
	</g>
</g>
</svg>
